<?xml version="1.0" encoding="utf-8"?>
<!-- Generator: Adobe Illustrator 16.0.0, SVG Export Plug-In . SVG Version: 6.00 Build 0)  -->
<!DOCTYPE svg PUBLIC "-//W3C//DTD SVG 1.1//EN" "http://www.w3.org/Graphics/SVG/1.1/DTD/svg11.dtd">
<svg version="1.1" id="Layer_1" xmlns="http://www.w3.org/2000/svg" xmlns:xlink="http://www.w3.org/1999/xlink" x="0px" y="0px"
	 width="595.28px" height="841.89px" viewBox="0 0 595.28 841.89" enable-background="new 0 0 595.28 841.89" xml:space="preserve">
<g>
	<g>
		<path fill="#8C1914" d="M141.541,551.968c2.945,3.648,6.011,7.193,9.192,10.631c-0.658,3.535-110.479,7.217-110.479,7.217
			l21.081-64.934L2.533,460.218c0,0,43.296-19.314,80.54-25.295C86.726,476.47,118.514,551.968,141.541,551.968"/>
		<path fill="#8C1914" d="M539.04,504.886l21.08,64.93c0,0-79.04-2.65-103.41-5.621c-0.29-0.029-0.551-0.059-0.82-0.1h-0.01
			c-0.46-0.059-0.891-0.119-1.3-0.17c-3.07-0.439-4.86-0.889-4.94-1.33c1.11-1.189,2.2-2.4,3.27-3.619
			c2.03-2.291,4-4.631,5.921-7.01c2.319,0,4.029-2.281,6.31-4.09v-0.012c0.17-0.129,0.34-0.26,0.51-0.389
			c1.49-1.07,3.23-1.891,5.54-1.76c0.04,0,0.08,0,0.12,0.01c0.03-0.01,0.07,0,0.11,0c0.31,0.02,0.46-0.43,0.689-0.65
			c20.431-19.561,42.21-76.199,45.19-110.15c4.07,0.65,8.22,1.471,12.37,2.4c33.819,7.57,68.17,22.891,68.17,22.891L539.04,504.886z
			"/>
		<path fill="#D72122" d="M531.47,422.775c-0.2,4.381-0.82,9.281-1.8,14.551c-8.21,44.369-41.761,114.641-63.2,114.641
			c0.439-0.541,0.87-1.08,1.29-1.631c0.02-0.029,0.04-0.049,0.06-0.08c0.04-0.049,0.08-0.1,0.12-0.15
			c1.101-1.42,2.19-2.879,3.25-4.389c0.04,0,0.08,0,0.12,0.01c23.5-31.451,38.34-69.74,40.98-111.35
			c0.01-0.111,0.01-0.221,0.02-0.33c0.271-4.33,0.4-8.701,0.4-13.111c0-0.71,0-1.43-0.021-2.14c0.04-0.53,0.08-1.061,0.11-1.58
			C516.02,417.655,531.47,422.775,531.47,422.775"/>
		<path fill="#B81817" d="M225.52,462.345c0.04,0.201,0.1,0.391,0.16,0.58c0.01-0.01,0.03-0.01,0.04,0
			C225.64,462.736,225.58,462.546,225.52,462.345 M510.699,412.776v0.039C511.05,412.815,510.859,412.786,510.699,412.776
			 M137.58,447.525l0.01,0.09c0.1-0.059,0.2-0.119,0.3-0.18C137.79,447.466,137.68,447.496,137.58,447.525 M123.16,427.996
			c-0.1,0.109-0.21,0.211-0.32,0.291c0.1-0.041,0.19-0.08,0.29-0.121c0.03-0.07,0.05-0.141,0.07-0.209
			C123.189,427.966,123.17,427.986,123.16,427.996 M97.2,435.755c-0.46,0.061-0.92,0.121-1.38,0.18c-0.63,0.08-1.26,0.16-1.9,0.24
			c0.01,0.111,0.01,0.23,0.02,0.34c0.64-0.08,1.28-0.17,1.91-0.24c0.47-0.059,0.94-0.119,1.4-0.17
			C97.229,435.986,97.22,435.876,97.2,435.755 M179.28,473.636c0.09-0.021,0.18-0.051,0.27-0.07c0.15-0.35,0.29-0.689,0.42-1.02
			C179.76,472.906,179.53,473.265,179.28,473.636 M225.52,462.345c0.04,0.201,0.1,0.391,0.16,0.58c0.01-0.01,0.03-0.01,0.04,0
			C225.64,462.736,225.58,462.546,225.52,462.345 M280.57,461.236c-0.031,0.02-0.051,0.039-0.08,0.061c0.08,0,0.17-0.01,0.26-0.01
			C280.689,461.265,280.63,461.246,280.57,461.236 M445.149,531.115c-1-0.43-2.04-0.84-3.1-1.25c-0.36-0.139-0.72-0.279-1.08-0.408
			c-0.72-0.281-1.45-0.541-2.2-0.801c-0.75-0.27-1.51-0.529-2.29-0.779c-0.38-0.131-0.77-0.262-1.17-0.391
			c-0.39-0.131-0.79-0.25-1.18-0.381c-0.4-0.119-0.8-0.25-1.21-0.369c-3.24-0.99-6.67-1.93-10.271-2.82
			c-0.45-0.109-0.899-0.221-1.359-0.33c-3.73-0.9-7.641-1.74-11.7-2.529c-0.891-0.17-1.8-0.35-2.72-0.51
			c-0.12-0.031-0.24-0.051-0.36-0.07c-0.89-0.16-1.79-0.33-2.69-0.48c-1.02-0.18-2.06-0.359-3.1-0.529
			c-1.05-0.18-2.1-0.352-3.16-0.521c-2.12-0.33-4.27-0.648-6.45-0.959c-1.09-0.16-2.189-0.311-3.29-0.449
			c-1.109-0.15-2.22-0.301-3.34-0.441c-2.24-0.279-4.5-0.549-6.79-0.809c-2.3-0.262-4.609-0.5-6.95-0.73
			c-2.51-0.25-5.04-0.48-7.59-0.701c-0.8-0.068-1.6-0.139-2.399-0.199c-3.82-0.32-7.681-0.59-11.58-0.84
			c-3.67-0.24-7.38-0.439-11.11-0.609c-1.26-0.061-2.5-0.111-3.75-0.16c-1.06-0.051-2.12-0.09-3.189-0.131
			c-0.391-0.01-0.78-0.02-1.16-0.039c-2.311-0.08-4.63-0.15-6.95-0.211c-1.36-0.029-2.72-0.061-4.07-0.09
			c-2.24-0.051-4.479-0.09-6.72-0.109h-0.6c-5.07-0.051-10.16-0.051-15.22,0c-1.271,0.01-2.531,0.029-3.801,0.049
			c-4.49,0.07-8.97,0.17-13.42,0.33c-0.97,0.031-1.93,0.061-2.89,0.1c-0.87,0.031-1.73,0.061-2.59,0.102
			c-0.92,0.039-1.84,0.08-2.76,0.119c-0.92,0.041-1.83,0.08-2.74,0.131c-0.66,0.029-1.31,0.059-1.96,0.1
			c-1.24,0.061-2.47,0.129-3.71,0.199c-5.14,0.291-10.23,0.65-15.23,1.051c-0.99,0.08-1.97,0.17-2.95,0.25
			c-7.2,0.619-14.21,1.359-20.98,2.219c-1.06,0.141-2.12,0.281-3.17,0.422c-0.68,0.09-1.35,0.18-2.02,0.279
			c-0.82,0.1-1.63,0.221-2.44,0.34c-1.15,0.16-2.29,0.33-3.43,0.51c-1.13,0.17-2.25,0.35-3.37,0.529
			c-1.71,0.271-3.4,0.561-5.07,0.861c-0.89,0.15-1.77,0.309-2.64,0.469c-0.69,0.131-1.38,0.262-2.06,0.391
			c-4.22,0.811-8.28,1.67-12.15,2.6c-0.63,0.15-1.25,0.301-1.86,0.451c-0.88,0.219-1.75,0.439-2.6,0.66
			c-1.04,0.27-2.08,0.549-3.09,0.83c-0.4,0.109-0.8,0.219-1.2,0.34c-0.66,0.189-1.31,0.379-1.96,0.568
			c-0.41,0.121-0.82,0.24-1.22,0.371c-0.5,0.15-1,0.311-1.49,0.459c-1.1,0.352-2.17,0.701-3.22,1.061
			c-0.03,0.01-0.06,0.02-0.09,0.031c-1.11,0.389-2.2,0.77-3.25,1.17c-0.36,0.129-0.72,0.27-1.08,0.408
			c-0.35,0.131-0.7,0.271-1.05,0.41c-0.35,0.141-0.69,0.281-1.04,0.42c-1.08,0.441-2.13,0.891-3.14,1.361
			c-0.58,0.26-1.16,0.529-1.72,0.799c-0.21,0.102-0.41,0.201-0.61,0.291c-2.86,1.41-5.39,2.891-7.57,4.449
			c-0.25,0.18-0.5,0.371-0.75,0.551h-0.01c-0.02,0.02-0.03,0.029-0.05,0.039c-0.32,0.25-0.64,0.49-0.94,0.74
			c-0.05,0.031-0.1,0.07-0.14,0.111c-0.19,0.148-0.37,0.299-0.55,0.459c-0.09,0.07-0.18,0.15-0.26,0.221v0.01l0.2,1.48l0.05,0.359
			c0.63-0.471,1.29-0.93,1.98-1.391c7.35-4.869,18.24-9.02,31.61-12.42c1.03-0.26,2.07-0.52,3.13-0.77
			c0.07-0.01,0.15-0.029,0.22-0.051c0.11-0.029,0.22-0.049,0.33-0.08c0.07-0.02,0.15-0.029,0.22-0.049c0.5-0.121,1-0.24,1.51-0.35
			c32.75-7.541,78.29-11.051,123-10.57h0.14c0.36,0,0.72,0.01,1.08,0.01c0.15,0,0.29,0.01,0.44,0.01c0.479,0,0.96,0.01,1.439,0.02
			c53.09,0.801,104.57,7.23,131.641,19.33c0.04,0.02,0.09,0.041,0.13,0.061l0.04-0.27l0.54-3.631v-0.01
			C445.609,531.306,445.38,531.216,445.149,531.115 M510.689,412.506c-0.01-0.521-0.06-1.03-0.16-1.54c-0.04-0.2-0.08-0.4-0.13-0.6
			c-0.069-0.271-0.149-0.541-0.24-0.811c0.181,1.561,0.28,2.52,0.32,2.83c0.01,0.029,0.01,0.061,0.01,0.08
			c0.051,0,0.091,0.01,0.131,0.02c0.01,0.09,0.01,0.19,0.01,0.28c0.02,0,0.05,0,0.069,0.011
			C510.699,412.686,510.699,412.596,510.689,412.506"/>
		<path fill="#B81817" d="M96.84,432.945c-0.38,0.041-0.76,0.092-1.14,0.141c-0.22-3.91-0.33-7.84-0.33-11.809
			c0-1.341,0.01-2.681,0.04-4.021C95.71,422.345,96.18,427.595,96.84,432.945"/>
		<path fill="#B81817" d="M123.2,427.957c-0.02,0.068-0.04,0.139-0.07,0.209c-0.1,0.041-0.19,0.08-0.29,0.121
			c0.11-0.08,0.22-0.182,0.32-0.291C123.17,427.986,123.19,427.966,123.2,427.957"/>
		<path fill="#B81817" d="M510.7,412.775c-0.021-0.01-0.051-0.01-0.07-0.01c0-0.09,0-0.19-0.01-0.28
			c-0.04-0.01-0.08-0.02-0.131-0.02c0-0.02,0-0.051-0.01-0.08c-0.04-0.311-0.14-1.27-0.319-2.83c0.09,0.27,0.17,0.54,0.239,0.811
			c0.051,0.199,0.09,0.399,0.13,0.6c0.101,0.51,0.15,1.02,0.16,1.54C510.7,412.596,510.7,412.686,510.7,412.775"/>
		<path fill="#B81817" d="M510.7,412.815v-0.039C510.859,412.786,511.05,412.815,510.7,412.815"/>
		<path fill="#0C3048" d="M511.939,406.466c-2.439-7.27-13.09-13.5-29.45-18.66c-0.119-0.05-0.239-0.09-0.359-0.12
			c-33.021-10.83-90.88-17.05-152.04-18.62v-19.49l-9.391-14.44L304,349.576l-11.811,3.17l-0.02,0.01l-24.05,6.46l-16.64-21.08
			l33.39-37.67l9.49-29.03l20.261,1.03l15.47,11.6l41.28,23.4l43.04-10.78h0.01l32.37-23.21c1.569,1.48,3.1,2.97,4.59,4.49
			c1.12,1.11,2.2,2.24,3.26,3.37c11.32,11.96,20.74,24.5,28.1,36.9c7.381,12.39,12.931,24.47,17.011,35.5
			c0.96,2.78,2.029,5.43,2.8,8.06c0.81,2.63,1.59,5.17,2.34,7.61c1.25,4.93,2.58,9.45,3.34,13.62c0.43,2.07,0.83,4.04,1.22,5.89
			c0.301,1.86,0.591,3.61,0.86,5.24c0.26,1.63,0.5,3.14,0.73,4.52c0.21,1.38,0.31,2.65,0.449,3.78
			C511.67,404.065,511.819,405.406,511.939,406.466"/>
		<path fill="#0C3048" d="M512.399,409.396c-0.04-0.01-0.08-0.02-0.13-0.02c0-0.02,0-0.05-0.01-0.08c-0.04-0.31-0.14-1.27-0.32-2.83
			c-0.12-1.06-0.27-2.4-0.449-4.01c-0.141-1.13-0.24-2.4-0.45-3.78c-0.23-1.38-0.471-2.89-0.73-4.52
			c-0.27-1.63-0.56-3.38-0.859-5.24c-0.391-1.85-0.79-3.82-1.221-5.89c-0.76-4.17-2.09-8.69-3.34-13.62
			c-0.75-2.44-1.53-4.98-2.34-7.61c-0.771-2.63-1.84-5.28-2.8-8.06c-4.08-11.03-9.63-23.11-17.01-35.5
			c-7.36-12.4-16.78-24.94-28.101-36.9c-1.06-1.13-2.14-2.26-3.26-3.37c-1.49-1.52-3.021-3.01-4.59-4.49l2.85-2.04
			c35.07,34.17,58.16,80.56,62.37,132.3c0.12,1.38,0.22,2.76,0.3,4.14C512.34,408.386,512.37,408.886,512.399,409.396"/>
		<path fill="#B81817" d="M493.5,472.855c-0.11-0.289-0.25-0.58-0.41-0.859C493.26,472.265,493.39,472.556,493.5,472.855"/>
		<path fill="#B81817" d="M446.979,531.916c-0.01-0.01-0.02-0.01-0.03-0.01v-0.01C446.96,531.896,446.97,531.906,446.979,531.916"/>
		<path fill="#B81817" d="M448.09,532.416h-0.021c-0.159-0.08-0.31-0.15-0.47-0.221C447.76,532.265,447.93,532.345,448.09,532.416"
			/>
		<path fill="#B81817" d="M464.51,545.095l-0.02-0.02c-0.07-0.131-0.15-0.26-0.23-0.381c0.06,0.08,0.11,0.16,0.16,0.24
			C464.45,544.996,464.479,545.046,464.51,545.095"/>
		<path fill="#B81817" d="M465.16,546.326c-0.011-0.039-0.03-0.08-0.051-0.109c0.011,0.02,0.021,0.049,0.04,0.07
			C465.149,546.296,465.16,546.316,465.16,546.326"/>
		<path fill="#B81817" d="M471.31,545.726c-1.1,1.469-2.22,2.939-3.37,4.379c-0.04,0.051-0.08,0.102-0.12,0.15
			c-0.02,0.031-0.04,0.051-0.06,0.08c-0.42,0.551-0.851,1.09-1.29,1.631c0-0.18,0-0.361-0.01-0.531c0-0.07-0.011-0.129-0.011-0.199
			c-0.01-0.199-0.029-0.4-0.05-0.609c-0.01-0.07-0.02-0.15-0.029-0.221c0-0.029,0-0.061-0.011-0.09
			c-0.01-0.131-0.029-0.26-0.06-0.391c-0.01-0.049-0.01-0.09-0.021-0.139c-0.02-0.102-0.029-0.191-0.06-0.291
			c-0.021-0.141-0.05-0.279-0.09-0.42c-0.05-0.25-0.12-0.5-0.19-0.75c-0.05-0.17-0.109-0.33-0.17-0.5
			c-0.03-0.109-0.07-0.23-0.12-0.35c1.49-1.07,3.23-1.891,5.54-1.76C471.229,545.716,471.27,545.716,471.31,545.726"/>
		<path fill="#848484" d="M493.5,472.855c-0.11-0.289-0.25-0.58-0.41-0.859C493.26,472.265,493.39,472.556,493.5,472.855"/>
		<path fill="#FFFFFF" d="M466.47,551.97c-4.239,5.25-8.729,10.29-13.45,15.1c-0.8-0.34-1.56-0.68-2.279-1.02
			c-0.271-0.13-0.54-0.26-0.8-0.4c-0.25-0.12-0.48-0.25-0.71-0.38c-0.011,0-0.011,0-0.021-0.01c-0.06-0.021-0.12-0.061-0.18-0.09
			c-0.19-0.101-0.37-0.21-0.55-0.32c-0.301-0.17-0.58-0.34-0.851-0.51c-0.21-0.13-0.42-0.271-0.62-0.41
			c-0.06-0.04-0.12-0.08-0.18-0.12c-0.22-0.15-0.42-0.3-0.62-0.46c-0.24-0.18-0.47-0.37-0.69-0.56L466.47,551.97z"/>
		<path fill="#FFFFFF" d="M152.22,553.646l0.44,3.189C151.9,555.525,151.7,554.457,152.22,553.646"/>
		<path fill="#FFFFFF" d="M453.02,567.081C415.14,605.69,362.37,629.66,304,629.66c-41.13,0-79.48-11.899-111.79-32.439
			c-1.63-2.21-3.39-4.37-5.25-6.48c1.27,0.801,2.56,1.61,3.86,2.431c0.66,0.42,1.33,0.84,2,1.26l2.47-11.33l2.91-13.33l-21.1-17.8
			l12.1-12.42c0,0-0.59-4.15-1.15-8.23c-1.35,0.23-2.68,0.45-3.99,0.69h-0.01c-2.17,0.399-4.27,0.81-6.3,1.229
			c1.19-1.93,2.6-3.8,4.22-5.479c1.49-1.58,3.17-3.021,5.05-4.25c3.87-0.92,7.93-1.78,12.15-2.59c0.68-0.13,1.37-0.261,2.06-0.4
			c0.87-0.16,1.75-0.31,2.64-0.46c1.67-0.3,3.36-0.59,5.07-0.87c1.12-0.18,2.24-0.35,3.37-0.52c1.14-0.181,2.28-0.351,3.43-0.511
			c0.81-0.119,1.62-0.239,2.44-0.34c0.67-0.1,1.34-0.189,2.02-0.279c1.05-0.141,2.11-0.28,3.17-0.431
			c6.77-0.85,13.78-1.6,20.98-2.21c0.98-0.08,1.96-0.17,2.95-0.25c5-0.399,10.09-0.76,15.23-1.05c1.24-0.08,2.47-0.14,3.71-0.2
			c0.65-0.05,1.3-0.069,1.96-0.1c0.91-0.05,1.82-0.09,2.74-0.13s1.84-0.08,2.76-0.12c0.86-0.04,1.72-0.07,2.59-0.11
			c0.96-0.03,1.92-0.06,2.89-0.09c4.45-0.17,8.93-0.26,13.42-0.34c1.27-0.01,2.53-0.03,3.8-0.04c5.06-0.05,10.15-0.05,15.22,0h0.6
			v0.01L304,558.24l7.03-22.89l1.189-22.87l1.261,3.45l2.779,7.65l12.61,34.67c-0.7,5.609-1.79,8.96-2.61,10.71
			c1.58-1.69,5.141-4.44,12.11-6.82l33.85,16.59c0.021,0.01,0.03,0.01,0.03,0.01h0.01l59.771-8.97l13.489-6.97
			c0.221,0.189,0.45,0.37,0.69,0.55c0.2,0.16,0.41,0.31,0.62,0.46c0.06,0.04,0.12,0.08,0.18,0.12c0.2,0.14,0.41,0.28,0.62,0.41
			c0.271,0.17,0.55,0.34,0.851,0.51c0.18,0.11,0.359,0.22,0.55,0.32c0.029,0.01,0.069,0.04,0.1,0.06c0.01,0.01,0.03,0.01,0.04,0.021
			c0.01,0.01,0.03,0.01,0.04,0.01c0.01,0.01,0.01,0.01,0.021,0.01c0.229,0.13,0.46,0.26,0.71,0.38c0.26,0.141,0.529,0.271,0.8,0.4
			c0.359,0.18,0.729,0.35,1.109,0.52C452.23,566.74,452.62,566.91,453.02,567.081z"/>
		<polygon fill="#FFFFFF" points="304,558.24 312.22,512.48 311.03,535.35 		"/>
		<path fill="#0C3048" d="M372.253,578.736l59.776-8.965L372.253,578.736z"/>
		<path fill="#FFFFFF" d="M414.319,296.676c-2.79-0.3-64.93-9.69-80.649-12.07L414.319,296.676z"/>
		<path fill="#FFFFFF" d="M372.253,578.736h-42.162H372.253z"/>
		<path fill="#FFFFFF" d="M451.38,277.97c-1.49-1.52-3.02-3.01-4.59-4.49l-32.37,23.21h-0.01l-43.04,10.78l-41.28-23.4l-15.47-11.6
			l-20.26-1.03l-9.49,29.03l-33.39,37.67l16.64,21.08l24.05-6.46l0.02-0.01c0.02,0,11.81-3.17,11.81-3.17l16.7-14.44l9.39,14.44
			v19.49c-59.52-1.53-122.17,1.36-168.1,8.71l5.72-39.64l41.99-21.17l-13.78-56.96c-3.59-3.32-8.15-11.13-2-12.11
			c1.19-0.2-1.05-2.18-1.71-3.23c32.31-20.54,70.66-32.44,111.79-32.44c56.66,0,108.03,22.57,145.64,59.21
			C450.55,273.85,451.12,276.02,451.38,277.97z"/>
		<polygon fill="#0C3048" points="311.6,515.9 304,558.24 310.23,523.52 		"/>
		<path fill="#0C3048" d="M466.47,551.97l-0.2,0.1c0,0-0.01,0.011-0.02,0.021l-0.04,0.01c0,0,0,0-0.01,0l-13.29,6.88l-7.391,3.82
			l-13.489,6.97l-59.771,8.97h-0.01c0,0-0.01,0-0.03-0.01c-0.899-0.21-20.45-6.81-20.45-7.13c-0.579,0.19-21.68,7.01-21.68,7.14
			l-24.28-0.96L304,558.25v-0.011l7.6-42.34l0.62-3.42v-0.01c2.24,0.02,4.48,0.05,6.721,0.11c1.35,0.02,2.71,0.06,4.069,0.09
			c2.32,0.06,4.641,0.13,6.95,0.21c0.38,0.02,0.771,0.029,1.16,0.04c1.07,0.04,2.13,0.08,3.189,0.13c1.25,0.05,2.49,0.1,3.75,0.16
			c3.73,0.17,7.44,0.37,11.11,0.609c3.9,0.25,7.76,0.521,11.58,0.84c0.8,0.061,1.6,0.131,2.4,0.19c2.55,0.23,5.08,0.46,7.59,0.71
			c2.34,0.23,4.649,0.46,6.95,0.73c2.29,0.26,4.55,0.529,6.79,0.81c1.119,0.14,2.229,0.29,3.34,0.44c1.1,0.14,2.199,0.29,3.29,0.449
			c2.18,0.311,4.33,0.62,6.449,0.95c1.061,0.17,2.11,0.351,3.16,0.53c1.04,0.17,2.08,0.35,3.101,0.53
			c0.899,0.149,1.8,0.319,2.689,0.479c0.12,0.021,0.24,0.03,0.36,0.07c0.92,0.16,1.83,0.34,2.72,0.51
			c4.061,0.79,7.97,1.62,11.7,2.53c0.46,0.1,0.91,0.22,1.36,0.33c3.6,0.89,7.029,1.83,10.27,2.819c0.41,0.11,0.811,0.25,1.21,0.36
			c0.39,0.14,0.79,0.25,1.18,0.39c0.4,0.12,0.79,0.261,1.171,0.391c0.779,0.25,1.539,0.51,2.289,0.779
			c0.75,0.261,1.48,0.521,2.2,0.801c0.36,0.13,0.721,0.27,1.08,0.399c1.061,0.41,2.101,0.82,3.101,1.25
			c0.229,0.11,0.46,0.2,0.68,0.3c0.189,0.08,0.38,0.16,0.56,0.25c0.19,0.08,0.37,0.16,0.551,0.24h0.01c0.01,0,0.02,0.01,0.03,0.021
			c0.21,0.09,0.42,0.18,0.619,0.27c0.16,0.08,0.33,0.16,0.49,0.23c0.311,0.149,0.61,0.29,0.91,0.43c0.35,0.17,0.7,0.34,1.04,0.51
			c0.17,0.08,0.33,0.16,0.49,0.25c0.97,0.49,1.89,0.99,2.779,1.521c0.32,0.18,0.641,0.37,0.95,0.55c0.311,0.2,0.62,0.39,0.92,0.58
			c0.23,0.14,0.46,0.29,0.681,0.43c0.01,0.021,0.029,0.021,0.04,0.03c0.35,0.24,0.689,0.46,1.02,0.7c0.561,0.39,1.09,0.77,1.6,1.18
			c0.511,0.4,1.011,0.8,1.471,1.22c0.12,0.101,0.24,0.19,0.35,0.311c0.11,0.1,0.22,0.2,0.33,0.3c0.11,0.11,0.22,0.21,0.33,0.32
			c0.11,0.1,0.21,0.189,0.32,0.31c0.189,0.19,0.37,0.37,0.56,0.57c0.37,0.39,0.72,0.8,1.04,1.2c0.12,0.14,0.23,0.27,0.33,0.42
			c0.1,0.109,0.19,0.25,0.28,0.359c0.109,0.16,0.22,0.311,0.319,0.46c0.131,0.19,0.261,0.37,0.37,0.57
			c0.021,0.02,0.03,0.04,0.04,0.05c0.061,0.08,0.11,0.16,0.16,0.24c0.03,0.07,0.061,0.12,0.09,0.17h0.01
			c0,0.01,0.011,0.01,0.011,0.03c0.1,0.16,0.189,0.31,0.27,0.479c0.08,0.15,0.15,0.28,0.22,0.41c0.03,0.07,0.051,0.12,0.08,0.16
			c0,0.01,0.011,0.03,0.011,0.04c0.01,0.02,0.02,0.05,0.04,0.07c0,0.01,0.01,0.029,0.01,0.04c0.02,0.029,0.04,0.09,0.06,0.13
			c0.09,0.17,0.16,0.34,0.23,0.52c0.069,0.15,0.13,0.311,0.189,0.45c0,0.03,0.011,0.04,0.011,0.05c0.05,0.12,0.09,0.24,0.119,0.351
			c0.061,0.17,0.12,0.329,0.171,0.5c0.069,0.25,0.14,0.5,0.189,0.75c0.04,0.14,0.07,0.27,0.09,0.42c0.03,0.1,0.04,0.18,0.061,0.29
			c0.01,0.05,0.01,0.09,0.02,0.14c0.03,0.13,0.05,0.25,0.061,0.39c0.01,0.03,0.01,0.061,0.01,0.09c0.01,0.07,0.02,0.15,0.03,0.221
			c0.02,0.21,0.04,0.41,0.05,0.609v0.16c0.01,0.01,0.01,0.03,0.01,0.03C466.47,551.6,466.47,551.791,466.47,551.97z"/>
		<polygon fill="#FFFFFF" points="294.359,271.44 251.484,338.14 251.481,338.14 		"/>
		<path d="M280.75,461.287c-0.09,0-0.18,0.01-0.26,0.01c0.029-0.021,0.049-0.041,0.08-0.061
			C280.63,461.246,280.689,461.265,280.75,461.287"/>
		<path fill="#848484" d="M225.72,462.925c-0.01-0.01-0.03-0.01-0.04,0c-0.06-0.189-0.12-0.379-0.16-0.58
			C225.58,462.546,225.64,462.736,225.72,462.925"/>
		<path fill="#0C3048" d="M177.75,533.236c-11.55,2.4-20.87,5.24-27.17,8.52l-0.22-1.58l-0.28-2.029c0.25-0.18,0.5-0.371,0.75-0.551
			c2.18-1.559,4.71-3.039,7.57-4.449c0.2-0.09,0.4-0.189,0.61-0.291c0.56-0.27,1.14-0.539,1.72-0.799
			c1.01-0.471,2.06-0.92,3.14-1.361c0.35-0.139,0.69-0.279,1.04-0.42c0.35-0.139,0.7-0.279,1.05-0.41
			c0.36-0.139,0.72-0.279,1.08-0.408c1.05-0.4,2.14-0.781,3.25-1.17c0.03-0.012,0.06-0.021,0.09-0.031
			c1.05-0.359,2.12-0.709,3.22-1.061c0.49-0.148,0.99-0.309,1.49-0.459c0.4-0.131,0.81-0.25,1.22-0.371
			c0.65-0.189,1.3-0.379,1.96-0.568c0.4-0.121,0.8-0.23,1.2-0.34c1.01-0.281,2.05-0.561,3.09-0.83c0.85-0.221,1.72-0.441,2.6-0.66
			c0.61-0.15,1.23-0.301,1.86-0.451l-1.15,3.291l-1.82,5.209C181.88,532.406,179.78,532.816,177.75,533.236"/>
		<path fill="#0C3048" d="M192.82,594.43l-0.61,2.79c-15.3-9.72-29.24-21.37-41.48-34.62c0.17-0.17,0.34-0.34,0.49-0.51
			c1.07-1.19,1.65-2.431,1.65-3.71l-0.21-1.54c3.73,6.51,21.18,18.93,34.29,33.89l0.01,0.01c1.27,0.801,2.56,1.61,3.86,2.431
			C191.48,593.59,192.15,594.01,192.82,594.43z"/>
		<path fill="#0C3048" d="M192.54,248.766c-0.98,0.62-1.95,1.25-2.92,1.91l2.59-6.01L192.54,248.766z"/>
		<path fill="#0C3048" d="M209.7,316.966l-41.99,21.17l-5.72,39.64c-32.97,5.27-57.32,12.84-65.71,22.72c0.12-1.2,0.24-2.4,0.38-3.6
			c0.01-0.03,0.01-0.06,0.02-0.1c0-0.03,0.01-0.05,0.01-0.08c0.17-1.11,0.41-2.58,0.7-4.39c0.31-2.26,0.9-5.01,1.59-8.23
			c0.61-3.24,1.56-6.91,2.61-11.02c2.22-8.17,5.25-18.02,9.88-28.84c4.64-10.8,10.71-22.65,18.75-34.62
			c1.03-1.49,2.06-2.98,3.11-4.49c0.53-0.76,1.05-1.52,1.58-2.28c0.57-0.74,1.13-1.48,1.7-2.23c1.13-1.49,2.28-2.99,3.43-4.51
			c1.18-1.5,2.45-2.95,3.68-4.45c4.93-5.99,10.44-11.82,16.36-17.54c3.02-2.79,6.04-5.67,9.32-8.34c3.17-2.78,6.6-5.34,10.01-7.98
			c3.33-2.4,6.71-4.8,10.19-7.11c0.01,0,0.01-0.01,0.02-0.01c0.97-0.66,1.94-1.29,2.92-1.91c0.19-0.13,0.38-0.25,0.57-0.37
			l2.81,11.61L209.7,316.966z"/>
		<path fill="#0C3048" d="M193.11,248.396c-0.19,0.12-0.38,0.24-0.57,0.37c-0.98,0.62-1.95,1.25-2.92,1.91
			c-0.01,0-0.01,0.01-0.02,0.01c-3.48,2.31-6.86,4.71-10.19,7.11c-3.41,2.64-6.84,5.2-10.01,7.979c-3.28,2.67-6.3,5.55-9.32,8.34
			c-5.92,5.72-11.43,11.55-16.36,17.54c-1.23,1.5-2.5,2.95-3.68,4.45c-1.15,1.52-2.3,3.02-3.43,4.51c-0.57,0.75-1.13,1.49-1.7,2.23
			c-0.53,0.76-1.05,1.52-1.58,2.28c-1.05,1.51-2.08,3-3.11,4.49c-8.04,11.97-14.11,23.82-18.75,34.62
			c-4.63,10.82-7.66,20.67-9.88,28.84c-1.05,4.11-2,7.78-2.61,11.02c-0.69,3.22-1.28,5.97-1.59,8.23c-0.29,1.81-0.53,3.28-0.7,4.39
			c7.39-63.97,43.7-119.12,95.52-152.05L193.11,248.396z"/>
		<path fill="#848484" d="M179.97,472.546c-0.13,0.33-0.27,0.67-0.42,1.02c-0.09,0.02-0.18,0.049-0.27,0.07
			C179.53,473.265,179.76,472.906,179.97,472.546"/>
		<path fill="#0C3048" d="M188.05,531.316c-1.35,0.23-2.68,0.459-3.99,0.699l1.81-5.209l1.15-3.291
			c-0.02,0.051,0.13,1.23,0.36,2.941C187.56,527.835,187.8,529.576,188.05,531.316"/>
		<polygon fill="#E0E0E0" points="161.99,377.773 161.988,377.775 161.988,377.773 		"/>
		<path fill="#0C3048" d="M151.22,562.09c-0.15,0.17-0.32,0.34-0.49,0.51c-2.31-2.5-4.56-5.05-6.75-7.67
			c-0.35-0.42-0.69-0.83-1.03-1.25c-0.28-0.34-0.57-0.69-0.84-1.04c0.47,0.52,1.22,1.35,2.25,2.43
			C146.01,556.76,148.23,559.22,151.22,562.09z"/>
		<path fill="#B81817" d="M121.42,431.037c-0.01,0.02-0.02,0.029-0.04,0.049c-0.1,0.109-0.21,0.211-0.32,0.291
			c0.26-0.111,0.53-0.23,0.8-0.34H121.42z M97.25,436.105c-0.02-0.119-0.03-0.229-0.05-0.35c-0.12-0.939-0.24-1.879-0.36-2.811
			c-0.38,0.041-0.76,0.092-1.14,0.141c-0.02,0-0.04,0.01-0.06,0.01c0.05,0.951,0.12,1.9,0.18,2.84c0.01,0.111,0.02,0.23,0.03,0.34
			c3.11,42.84,19.15,82.09,44.25,113.871C117.94,521.615,102.67,476.296,97.25,436.105 M141.55,551.525v0.09
			c0-0.059,0-0.109,0.01-0.158C141.56,551.476,141.56,551.496,141.55,551.525 M142.41,547.326c-0.01,0.039-0.02,0.07-0.04,0.109
			c0.01-0.02,0.02-0.039,0.03-0.059c0.01-0.051,0.03-0.09,0.05-0.141C142.44,547.265,142.43,547.296,142.41,547.326"/>
		<path fill="#B81817" d="M512.689,418.796c-0.02-3.04-0.109-6.07-0.27-9.08c-0.17-0.04-0.11-0.04-0.01-0.04
			c0-0.09,0-0.19-0.011-0.28c-0.04-0.01-0.08-0.02-0.13-0.02c0-0.02,0-0.05-0.01-0.08c-0.04-0.31-0.14-1.27-0.32-2.83
			c-2.439-7.27-13.09-13.5-29.45-18.66c-0.119-0.05-0.239-0.09-0.359-0.12c-33.8-10.61-91.66-16.75-151.96-18.29
			c-10.271-0.26-20.63-0.39-30.98-0.39c-49.66,0-99.11,3.02-137.12,9.1c-32.97,5.27-57.32,12.84-65.71,22.72
			c-0.52,5.41-0.84,10.871-0.95,16.39v0.04c0.3,5.089,0.77,10.339,1.43,15.689c0.12,0.932,0.24,1.871,0.36,2.811
			c0.02,0.121,0.03,0.23,0.05,0.35c5.42,40.191,20.69,85.51,42.85,114.041c0.48,0.619,0.96,1.219,1.44,1.82
			c0-0.09,0-0.191,0.01-0.281c-0.01-0.01-0.01-0.01,0-0.02v-0.01c-0.01-0.01-0.01-0.01,0-0.02c-0.01-0.01-0.01-0.01,0-0.021v-0.09
			c0.01-0.029,0.01-0.049,0.01-0.068c-0.01-0.021,0-0.031,0-0.051c0-0.131,0-0.26,0.02-0.391c0.02-0.299,0.05-0.59,0.09-0.879
			c0.06-0.371,0.13-0.73,0.22-1.09c0.03-0.17,0.08-0.34,0.13-0.51c0.1-0.371,0.22-0.73,0.35-1.102c0.02-0.039,0.03-0.07,0.04-0.109
			c0.02-0.029,0.03-0.061,0.04-0.09c0.09-0.211,0.17-0.42,0.27-0.631c0.05-0.109,0.1-0.219,0.15-0.33
			c0.01-0.029,0.03-0.059,0.05-0.09c0.06-0.129,0.12-0.27,0.2-0.398c0.06-0.121,0.12-0.24,0.19-0.352c0.1-0.18,0.2-0.359,0.31-0.539
			c0.12-0.211,0.26-0.42,0.41-0.631c0.1-0.16,0.21-0.32,0.32-0.469c0.04-0.061,0.08-0.111,0.12-0.17
			c0.09-0.131,0.19-0.262,0.29-0.381c0.06-0.09,0.13-0.17,0.2-0.26c0.01-0.02,0.03-0.041,0.05-0.061
			c0.12-0.15,0.24-0.299,0.37-0.449c0.09-0.111,0.18-0.211,0.27-0.311c0.06-0.08,0.13-0.15,0.2-0.221
			c0.18-0.209,0.37-0.408,0.57-0.619c0.25-0.25,0.5-0.5,0.76-0.75c0.15-0.15,0.31-0.289,0.47-0.43c0.14-0.131,0.28-0.25,0.42-0.371
			c0.02-0.02,0.04-0.039,0.06-0.049v-0.01c0.08-0.07,0.17-0.15,0.26-0.221c0.18-0.16,0.36-0.311,0.55-0.459
			c0.04-0.041,0.09-0.08,0.14-0.111c0.3-0.25,0.62-0.49,0.94-0.74c0.02-0.01,0.03-0.02,0.05-0.039h0.01
			c0.25-0.18,0.5-0.371,0.75-0.551c2.18-1.559,4.71-3.039,7.57-4.449c0.2-0.09,0.4-0.189,0.61-0.291
			c0.56-0.27,1.14-0.539,1.72-0.799c1.01-0.471,2.06-0.92,3.14-1.361c0.35-0.139,0.69-0.279,1.04-0.42
			c0.35-0.139,0.7-0.279,1.05-0.41c0.36-0.139,0.72-0.279,1.08-0.408c1.05-0.4,2.14-0.781,3.25-1.17
			c0.03-0.012,0.06-0.021,0.09-0.031c1.05-0.359,2.12-0.709,3.22-1.061c0.49-0.148,0.99-0.309,1.49-0.459
			c0.4-0.131,0.81-0.25,1.22-0.371c0.65-0.189,1.3-0.379,1.96-0.568c0.4-0.121,0.8-0.23,1.2-0.34c1.01-0.281,2.05-0.561,3.09-0.83
			c0.86-0.23,1.72-0.451,2.6-0.66c0.61-0.15,1.23-0.301,1.86-0.451c3.87-0.93,7.93-1.789,12.15-2.6c0.68-0.129,1.37-0.26,2.06-0.391
			c0.87-0.16,1.75-0.318,2.64-0.469c1.67-0.301,3.36-0.59,5.07-0.861c1.11-0.18,2.24-0.359,3.37-0.529
			c1.13-0.18,2.28-0.35,3.43-0.51c0.81-0.119,1.62-0.24,2.44-0.34c0.67-0.1,1.34-0.189,2.02-0.279c1.05-0.141,2.11-0.281,3.17-0.422
			c6.77-0.859,13.78-1.6,20.98-2.219c0.98-0.08,1.96-0.17,2.95-0.25c5-0.4,10.09-0.76,15.23-1.051c1.24-0.07,2.47-0.139,3.71-0.199
			c0.65-0.041,1.3-0.07,1.96-0.1c0.91-0.051,1.82-0.09,2.74-0.131c0.92-0.039,1.84-0.08,2.76-0.119c0.86-0.041,1.72-0.07,2.59-0.102
			c0.96-0.039,1.92-0.068,2.89-0.1c4.45-0.16,8.93-0.26,13.42-0.33c1.27-0.02,2.53-0.039,3.801-0.049
			c5.06-0.051,10.149-0.051,15.22,0h0.6c2.24,0.02,4.48,0.059,6.72,0.109c1.351,0.029,2.71,0.061,4.07,0.09
			c2.32,0.061,4.64,0.131,6.95,0.211c0.38,0.02,0.77,0.029,1.16,0.039c1.069,0.041,2.13,0.08,3.189,0.131
			c1.25,0.049,2.49,0.1,3.75,0.16c3.73,0.17,7.44,0.369,11.11,0.609c3.899,0.25,7.76,0.52,11.58,0.84
			c0.8,0.061,1.6,0.119,2.399,0.199c2.551,0.221,5.08,0.451,7.59,0.701c2.341,0.23,4.65,0.469,6.95,0.73
			c2.29,0.25,4.55,0.52,6.79,0.809c1.12,0.141,2.23,0.281,3.34,0.441c1.101,0.139,2.2,0.299,3.29,0.449
			c2.181,0.301,4.33,0.619,6.45,0.959c1.061,0.17,2.11,0.342,3.16,0.521c1.04,0.16,2.07,0.34,3.1,0.529
			c0.9,0.15,1.801,0.32,2.69,0.48c0.12,0.02,0.24,0.039,0.36,0.07c0.92,0.16,1.83,0.34,2.72,0.51c4.06,0.789,7.97,1.629,11.7,2.529
			c0.46,0.109,0.91,0.221,1.359,0.33c3.601,0.891,7.03,1.83,10.271,2.82c0.41,0.119,0.81,0.25,1.21,0.369
			c0.39,0.131,0.79,0.25,1.18,0.381c0.391,0.119,0.79,0.25,1.17,0.391c0.78,0.25,1.54,0.51,2.29,0.779
			c0.75,0.26,1.48,0.52,2.2,0.801c0.36,0.129,0.72,0.27,1.08,0.408c1.06,0.41,2.1,0.82,3.1,1.25c0.23,0.102,0.46,0.191,0.681,0.291
			c0.189,0.08,0.38,0.16,0.56,0.25c0.19,0.08,0.37,0.16,0.55,0.24h0.011c0.01,0,0.02,0.01,0.029,0.02
			c0.21,0.09,0.42,0.18,0.62,0.279c0.16,0.07,0.33,0.15,0.49,0.221c0.31,0.15,0.61,0.291,0.91,0.439c0.35,0.17,0.7,0.34,1.04,0.51
			c0.17,0.08,0.33,0.16,0.489,0.25c0.971,0.49,1.891,0.99,2.78,1.512c0.32,0.18,0.641,0.369,0.95,0.559
			c0.31,0.191,0.62,0.381,0.92,0.57c0.23,0.141,0.46,0.291,0.68,0.439c0.011,0.012,0.03,0.012,0.04,0.021
			c0.351,0.24,0.69,0.469,1.021,0.699c0.56,0.391,1.09,0.779,1.6,1.18s1.01,0.801,1.47,1.221c0.12,0.1,0.24,0.199,0.351,0.311
			c0.11,0.1,0.22,0.199,0.33,0.309c0.109,0.102,0.22,0.201,0.33,0.311c0.109,0.1,0.21,0.199,0.319,0.311
			c0.19,0.189,0.37,0.379,0.561,0.57c0.37,0.398,0.72,0.799,1.04,1.199c0.12,0.141,0.229,0.279,0.33,0.42
			c0.1,0.119,0.189,0.25,0.279,0.369c0.11,0.15,0.221,0.301,0.32,0.451c0.13,0.189,0.26,0.379,0.37,0.57
			c0.02,0.02,0.03,0.039,0.04,0.059c0.06,0.08,0.11,0.16,0.16,0.24c0.03,0.061,0.06,0.111,0.09,0.16l0.01,0.01
			c0,0.01,0.01,0.01,0.01,0.021c0.101,0.16,0.19,0.318,0.271,0.488c0.08,0.141,0.15,0.271,0.22,0.41
			c0.03,0.061,0.05,0.111,0.08,0.16c0,0.01,0.01,0.021,0.01,0.031c0.011,0.02,0.021,0.049,0.04,0.07c0,0.01,0.011,0.029,0.011,0.039
			c0.02,0.039,0.04,0.09,0.06,0.131c0.09,0.17,0.16,0.34,0.23,0.52c0.069,0.15,0.13,0.311,0.189,0.459
			c0,0.021,0.01,0.031,0.01,0.041c1.49-1.07,3.23-1.891,5.54-1.76c0.04,0,0.08,0,0.12,0.01c23.5-31.451,38.34-69.74,40.98-111.35
			c0.01-0.111,0.01-0.221,0.02-0.33c0.271-4.33,0.4-8.701,0.4-13.111C512.71,420.226,512.71,419.506,512.689,418.796
			 M121.06,431.376c0.11-0.08,0.22-0.182,0.32-0.291c0.02-0.02,0.03-0.029,0.04-0.049h0.44
			C121.59,431.146,121.32,431.265,121.06,431.376 M123.13,428.166c-0.1,0.041-0.19,0.08-0.29,0.121c0.11-0.08,0.22-0.182,0.32-0.291
			c0.01-0.01,0.03-0.029,0.04-0.039C123.18,428.025,123.16,428.095,123.13,428.166 M132.1,439.656c0.04,0.02,0.08,0.051,0.12,0.08
			s0.07,0.061,0.11,0.1C132.26,439.775,132.18,439.716,132.1,439.656 M137.59,447.615l-0.01-0.09c0.1-0.029,0.21-0.059,0.31-0.09
			C137.79,447.496,137.69,447.556,137.59,447.615 M151.07,452.076v-0.119c0.03-0.051,0.07-0.102,0.1-0.15
			C151.13,451.896,151.1,451.986,151.07,452.076 M179.55,473.566c-0.09,0.02-0.18,0.049-0.27,0.07c0.25-0.371,0.48-0.73,0.69-1.09
			C179.84,472.876,179.7,473.216,179.55,473.566 M225.68,462.925c-0.06-0.189-0.12-0.379-0.16-0.58c0.06,0.201,0.12,0.391,0.2,0.58
			C225.71,462.916,225.69,462.916,225.68,462.925 M280.49,461.296c0.029-0.021,0.049-0.041,0.08-0.061
			c0.06,0.01,0.119,0.029,0.18,0.051C280.66,461.287,280.57,461.296,280.49,461.296 M481.52,465.156
			c-0.14-0.051-0.28-0.1-0.439-0.16c0.159,0.051,0.31,0.1,0.439,0.15c0.141,0.049,0.271,0.1,0.4,0.141
			C481.79,465.246,481.66,465.207,481.52,465.156 M493.09,471.996c0.17,0.27,0.3,0.561,0.41,0.859
			C493.39,472.566,493.25,472.275,493.09,471.996 M510.7,412.815v-0.039c-0.021-0.011-0.051-0.011-0.07-0.011
			c0-0.09,0-0.19-0.01-0.28c-0.04-0.01-0.08-0.02-0.131-0.02c0-0.02,0-0.051-0.01-0.08c-0.04-0.311-0.14-1.27-0.319-2.83
			c0.09,0.27,0.17,0.54,0.239,0.811c0.051,0.199,0.09,0.399,0.13,0.6c0.101,0.51,0.15,1.02,0.16,1.54
			c0.011,0.09,0.011,0.18,0.011,0.271C510.859,412.786,511.05,412.815,510.7,412.815"/>
		<path fill="#8C1914" d="M141.541,551.968c2.945,3.648,6.011,7.193,9.192,10.631c-0.658,3.535-110.479,7.217-110.479,7.217
			l21.081-64.934L2.533,460.218c0,0,43.296-19.314,80.54-25.295c1.145,13.027,5.057,29.393,10.597,45.721
			c0.085,0.252,0.171,0.502,0.256,0.754c0.074,0.215,4.7,2.396,4.774,2.611c12.073,34.992,29.083,62.207,42.468,67.953
			c0.09,0.039,0.197,0.006,0.294,0.006c0.009,0,0.018,0,0.027,0C141.506,551.968,141.524,551.968,141.541,551.968"/>
		<path d="M137.89,447.435c-0.1,0.061-0.2,0.121-0.3,0.18l-0.01-0.09C137.68,447.496,137.79,447.466,137.89,447.435"/>
		<path fill="#D72122" d="M141.54,551.966h-0.08c-0.1,0-0.21,0-0.31-0.01h-0.01c-11.34-0.49-26.03-21.75-38.47-48.15
			c-0.01-0.031-0.03-0.051-0.04-0.08c0-0.02-0.01-0.031-0.02-0.051c-0.25-0.529-0.49-1.061-0.74-1.59
			c-0.21-0.449-0.42-0.91-0.63-1.369c-9.84-21.49-18.09-45.91-21.84-65.16c-0.89-4.59-1.53-8.891-1.87-12.781
			c0,0,13.82-5.03,17.88-5.559v0.04c0.3,5.089,0.77,10.339,1.43,15.689c0.12,0.932,0.24,1.871,0.36,2.811
			c0.02,0.121,0.03,0.23,0.05,0.35c5.42,40.191,20.69,85.51,42.85,114.041C140.58,550.765,141.06,551.365,141.54,551.966"/>
		<g opacity="0.34">
			<g>
				<path fill="#303031" d="M466.46,551.435c0-0.01,0-0.029-0.01-0.039c-0.11-1.221-0.561-2.381-1.311-3.52v-0.012
					c-2.689-4.039-9.35-7.559-18.99-10.6c-27.06-8.5-77.63-13.07-129.89-13.689c-1.54-0.02-3.08-0.029-4.62-0.039
					c-0.47-0.012-0.939-0.012-1.41-0.012c-42.67-0.25-85.9,2.111-117.92,7.102c-1.44,0.219-2.86,0.449-4.26,0.689
					c-1.35,0.23-2.68,0.459-3.99,0.699h-0.01c-2.17,0.391-4.27,0.801-6.3,1.221c-11.55,2.4-20.87,5.24-27.17,8.52
					c-5.52,2.881-8.71,6.09-9.02,9.65c0-0.131,0-0.26,0.02-0.391c0.02-0.299,0.05-0.59,0.09-0.879c0.06-0.371,0.13-0.73,0.22-1.09
					c0.03-0.17,0.08-0.34,0.13-0.51c0.1-0.371,0.22-0.73,0.35-1.102c0.01-0.02,0.02-0.039,0.03-0.059c0-0.012,0.01-0.031,0.01-0.051
					c0.02-0.029,0.03-0.061,0.04-0.09c0.09-0.211,0.17-0.42,0.27-0.631c0.05-0.109,0.1-0.219,0.15-0.33
					c0.01-0.029,0.03-0.059,0.05-0.09c0.06-0.139,0.13-0.27,0.2-0.398c0.06-0.121,0.12-0.24,0.19-0.352
					c0.1-0.18,0.2-0.359,0.31-0.539c0.12-0.211,0.26-0.42,0.41-0.631c0.1-0.16,0.21-0.32,0.32-0.469
					c0.04-0.061,0.08-0.111,0.12-0.17c0.09-0.131,0.19-0.262,0.29-0.381c0.06-0.09,0.13-0.17,0.2-0.26
					c0.01-0.02,0.03-0.041,0.05-0.061c0.12-0.15,0.24-0.299,0.37-0.449c0.09-0.111,0.18-0.211,0.27-0.311
					c0.06-0.08,0.13-0.15,0.2-0.221c0.18-0.209,0.37-0.408,0.57-0.619c0.25-0.25,0.5-0.5,0.76-0.75c0.15-0.15,0.31-0.289,0.47-0.43
					c0.14-0.131,0.28-0.25,0.42-0.371c0.02-0.02,0.04-0.039,0.06-0.049v-0.01c0.08-0.07,0.17-0.15,0.26-0.221
					c0.18-0.16,0.36-0.311,0.55-0.459c0.04-0.041,0.09-0.08,0.14-0.111c0.3-0.25,0.62-0.49,0.94-0.74
					c0.02-0.01,0.03-0.02,0.05-0.039h0.01c0.25-0.18,0.5-0.371,0.75-0.551c2.18-1.559,4.71-3.039,7.57-4.449
					c0.2-0.09,0.4-0.189,0.61-0.291c0.56-0.27,1.14-0.539,1.72-0.799c1.01-0.471,2.06-0.92,3.14-1.361
					c0.35-0.139,0.69-0.279,1.04-0.42c0.35-0.139,0.7-0.279,1.05-0.41c0.36-0.139,0.72-0.279,1.08-0.408
					c1.05-0.4,2.14-0.781,3.25-1.17c0.03-0.012,0.06-0.021,0.09-0.031c1.05-0.359,2.12-0.709,3.22-1.061
					c0.49-0.148,0.99-0.309,1.49-0.459c0.4-0.131,0.81-0.25,1.22-0.371c0.65-0.189,1.3-0.379,1.96-0.568
					c0.4-0.121,0.8-0.23,1.2-0.34c1.01-0.281,2.05-0.561,3.09-0.83c0.85-0.221,1.72-0.441,2.6-0.66c0.61-0.15,1.23-0.301,1.86-0.451
					c3.87-0.93,7.93-1.789,12.15-2.6c0.68-0.129,1.37-0.26,2.06-0.391c0.87-0.16,1.75-0.318,2.64-0.469
					c1.67-0.301,3.36-0.59,5.07-0.861c1.12-0.18,2.24-0.359,3.37-0.529c1.14-0.18,2.28-0.35,3.43-0.51
					c0.81-0.119,1.62-0.24,2.44-0.34c0.67-0.1,1.34-0.189,2.02-0.279c1.05-0.141,2.11-0.281,3.17-0.422
					c6.77-0.859,13.78-1.6,20.98-2.219c0.98-0.08,1.96-0.17,2.95-0.25c5-0.4,10.09-0.76,15.23-1.051
					c1.24-0.07,2.47-0.139,3.71-0.199c0.65-0.041,1.3-0.07,1.96-0.1c0.91-0.051,1.82-0.09,2.74-0.131
					c0.92-0.039,1.84-0.08,2.76-0.119c0.86-0.041,1.72-0.07,2.59-0.102c0.96-0.039,1.92-0.068,2.89-0.1
					c4.45-0.16,8.93-0.26,13.42-0.33c1.27-0.02,2.53-0.039,3.801-0.049c5.06-0.051,10.149-0.051,15.22,0c0.199,0,0.399,0,0.6,0.01
					c2.25,0.02,4.49,0.049,6.72,0.1c1.351,0.029,2.71,0.061,4.07,0.09c2.32,0.061,4.64,0.131,6.95,0.211
					c0.38,0.02,0.77,0.029,1.16,0.039c1.069,0.041,2.13,0.08,3.189,0.131c1.25,0.049,2.49,0.1,3.75,0.16
					c3.73,0.18,7.431,0.379,11.11,0.609c3.899,0.25,7.76,0.52,11.58,0.84c0.8,0.061,1.6,0.131,2.399,0.199
					c2.551,0.221,5.08,0.451,7.591,0.701c2.34,0.23,4.649,0.469,6.949,0.73c2.29,0.26,4.551,0.529,6.79,0.809
					c1.12,0.141,2.23,0.291,3.34,0.441c1.101,0.139,2.2,0.289,3.29,0.449c2.181,0.311,4.33,0.629,6.45,0.959
					c1.061,0.17,2.11,0.342,3.16,0.521c1.04,0.17,2.08,0.35,3.1,0.529c0.9,0.15,1.801,0.32,2.69,0.48
					c0.12,0.02,0.24,0.039,0.36,0.07c0.92,0.16,1.83,0.34,2.72,0.51c4.06,0.789,7.97,1.629,11.7,2.529
					c0.46,0.109,0.91,0.221,1.359,0.33c3.601,0.891,7.03,1.83,10.271,2.82c0.41,0.119,0.81,0.25,1.21,0.369
					c0.39,0.131,0.79,0.25,1.18,0.381c0.4,0.129,0.79,0.26,1.17,0.391c0.78,0.25,1.54,0.51,2.29,0.779
					c0.74,0.26,1.48,0.529,2.2,0.801c0.36,0.129,0.72,0.27,1.08,0.408c1.06,0.41,2.1,0.82,3.1,1.25
					c0.23,0.102,0.46,0.191,0.681,0.291v0.01c0.189,0.07,0.38,0.15,0.56,0.24c0.19,0.08,0.37,0.16,0.55,0.24h0.011v0.01
					c0.01,0,0.02,0,0.029,0.01c0.21,0.09,0.42,0.18,0.62,0.279c0.16,0.07,0.311,0.141,0.47,0.221
					c0.311,0.141,0.62,0.291,0.931,0.439c0.35,0.17,0.7,0.34,1.04,0.51c0.17,0.08,0.33,0.16,0.489,0.25
					c0.971,0.49,1.891,0.99,2.78,1.512c0.32,0.18,0.641,0.369,0.95,0.559c0.31,0.191,0.62,0.381,0.92,0.57
					c0.23,0.141,0.46,0.291,0.68,0.439c0.011,0.012,0.03,0.012,0.04,0.021c0.351,0.24,0.69,0.469,1.021,0.699
					c0.56,0.391,1.09,0.779,1.6,1.18s1.01,0.801,1.471,1.221c0.119,0.1,0.239,0.199,0.35,0.311c0.11,0.1,0.22,0.199,0.33,0.309
					c0.109,0.102,0.22,0.201,0.33,0.311c0.109,0.1,0.21,0.199,0.319,0.311c0.19,0.189,0.37,0.379,0.561,0.57
					c0.37,0.398,0.72,0.799,1.04,1.199c0.12,0.141,0.229,0.279,0.33,0.42c0.1,0.119,0.189,0.25,0.279,0.369
					c0.11,0.15,0.221,0.301,0.32,0.451c0.13,0.189,0.26,0.379,0.37,0.57c0.021,0.02,0.03,0.039,0.04,0.059
					c0.06,0.08,0.11,0.16,0.16,0.24c0.03,0.051,0.05,0.102,0.07,0.141l0.029,0.029c0,0.01,0.01,0.01,0.01,0.021
					c0.101,0.16,0.19,0.318,0.271,0.488c0.08,0.141,0.15,0.271,0.22,0.41c0.03,0.061,0.05,0.111,0.08,0.16
					c0,0.01,0.01,0.021,0.01,0.031c0.011,0.02,0.021,0.049,0.04,0.07c0,0.01,0.011,0.029,0.011,0.039
					c0.02,0.039,0.04,0.09,0.06,0.131c0.09,0.17,0.16,0.34,0.23,0.52c0.069,0.15,0.13,0.311,0.189,0.459
					c0,0.021,0.01,0.031,0.01,0.041c0.051,0.119,0.091,0.24,0.12,0.35c0.061,0.17,0.12,0.33,0.17,0.5c0.07,0.25,0.141,0.5,0.19,0.75
					c0.04,0.141,0.07,0.279,0.09,0.42c0.03,0.1,0.04,0.189,0.06,0.291c0.011,0.049,0.011,0.09,0.021,0.139
					c0.03,0.131,0.05,0.26,0.06,0.391c0.011,0.029,0.011,0.061,0.011,0.09c0.01,0.07,0.02,0.15,0.029,0.221
					c0.021,0.209,0.04,0.41,0.051,0.609C466.45,551.306,466.46,551.365,466.46,551.435"/>
			</g>
		</g>
		<path fill="#0C3048" d="M512.26,409.296c-0.04-0.31-0.14-1.27-0.32-2.83c-0.12-1.06-0.27-2.4-0.449-4.01
			c-0.141-1.13-0.24-2.4-0.45-3.78c-0.23-1.38-0.471-2.89-0.73-4.52c-0.27-1.63-0.56-3.38-0.859-5.24
			c-0.391-1.85-0.79-3.82-1.221-5.89c-0.76-4.17-2.09-8.69-3.34-13.62c-0.75-2.44-1.53-4.98-2.34-7.61
			c-0.77-2.63-1.84-5.28-2.8-8.06c-4.08-11.03-9.63-23.11-17.01-35.5c-7.36-12.4-16.78-24.94-28.101-36.9
			c-1.06-1.13-2.14-2.26-3.26-3.37c-1.49-1.52-3.021-3.01-4.59-4.49c-0.601-0.57-1.2-1.13-1.8-1.68
			c-9.061-8.35-19.23-16.13-30.181-23.21c-7.609-4.72-15.569-9.14-23.93-13.01c-2.08-0.99-4.23-1.83-6.35-2.76l-3.2-1.36
			c-1.07-0.43-2.17-0.81-3.261-1.22c-2.18-0.81-4.35-1.67-6.55-2.45c-2.22-0.71-4.45-1.44-6.68-2.16
			c-8.98-2.68-18.17-5.03-27.57-6.43l-3.51-0.59l-3.54-0.42c-2.35-0.26-4.72-0.62-7.08-0.81c-4.7-0.32-9.34-0.74-14.27-0.76
			l-3.65-0.1l-0.91-0.02l-0.46-0.01h-0.34l-1.79,0.04l-7.14,0.15c-2.381,0.11-4.75,0.31-7.12,0.46c-1.19,0.09-2.37,0.15-3.56,0.26
			l-3.531,0.42c-9.449,0.97-18.759,2.771-27.849,5.08c-18.18,4.64-35.46,11.63-51.02,20.49c-2.59,1.43-5.11,2.93-7.58,4.51h-0.01
			c-0.27,0.17-0.53,0.33-0.8,0.5c-0.19,0.12-0.38,0.24-0.57,0.37c-0.98,0.62-1.95,1.25-2.92,1.91c-0.01,0-0.01,0.01-0.02,0.01
			c-3.48,2.31-6.86,4.71-10.19,7.11c-3.41,2.64-6.84,5.2-10.01,7.98c-3.28,2.67-6.3,5.55-9.32,8.34
			c-5.92,5.72-11.43,11.55-16.36,17.54c-1.23,1.5-2.5,2.95-3.68,4.45c-1.15,1.52-2.3,3.02-3.43,4.51c-0.57,0.75-1.13,1.49-1.7,2.23
			c-0.53,0.76-1.05,1.52-1.58,2.28c-1.05,1.51-2.08,3-3.11,4.49c-8.04,11.97-14.11,23.82-18.75,34.62
			c-4.63,10.82-7.66,20.67-9.88,28.84c-1.05,4.11-2,7.78-2.61,11.02c-0.69,3.22-1.28,5.97-1.59,8.23c-0.29,1.81-0.53,3.28-0.7,4.39
			c0,0.03-0.01,0.05-0.01,0.08c-0.01,0.04-0.01,0.07-0.02,0.1c-0.2,1.21-0.32,1.97-0.37,2.23c0.05-0.53,0.26-2.88,0.64-6.86
			c0.16-2.27,0.57-5.06,1.05-8.34c0.25-1.64,0.43-3.42,0.8-5.29c0.37-1.86,0.75-3.85,1.16-5.94c1.79-8.35,4.27-18.49,8.51-29.67
			c4.21-11.17,9.83-23.53,17.67-36.05c7.79-12.52,17.51-25.39,29.51-37.4c3.05-2.95,6.09-6,9.39-8.84c3.21-2.96,6.67-5.69,10.13-8.5
			c1.74-1.41,3.58-2.69,5.38-4.05c1.81-1.35,3.64-2.68,5.56-3.92c1.9-1.26,3.8-2.52,5.72-3.8c1.97-1.18,3.95-2.38,5.93-3.57
			c8.03-4.65,16.42-9.05,25.27-12.67c8.82-3.68,17.97-6.94,27.45-9.3c9.45-2.45,19.13-4.38,28.95-5.44l3.68-0.45
			c1.23-0.13,2.47-0.19,3.7-0.29c2.47-0.17,4.94-0.39,7.409-0.52l7.44-0.19l1.851-0.05c0.21,0,0.21-0.01,0.569-0.01l0.46,0.01
			l0.91,0.02l3.65,0.08c4.8,0.02,9.85,0.49,14.83,0.86c2.489,0.21,4.93,0.59,7.39,0.88l3.68,0.46l3.66,0.63
			c9.771,1.51,19.32,4,28.65,6.84c9.35,2.84,18.31,6.59,26.97,10.63c8.62,4.15,16.82,8.86,24.62,13.88
			c15.479,10.25,29.15,22.07,40.439,34.74c1.41,1.59,2.811,3.16,4.2,4.72c1.32,1.63,2.63,3.24,3.931,4.83
			c0.649,0.8,1.3,1.6,1.939,2.39c0.61,0.82,1.22,1.63,1.83,2.45c1.2,1.63,2.39,3.25,3.57,4.86c2.26,3.28,4.42,6.54,6.49,9.78
			c0.989,1.65,1.96,3.28,2.93,4.9c0.979,1.61,1.93,3.21,2.78,4.86c7.149,12.92,12.229,25.5,15.85,36.88c0.85,2.87,1.8,5.59,2.47,8.3
			c0.681,2.71,1.34,5.31,1.98,7.81c0.99,5.07,2.069,9.68,2.609,13.93c0.311,2.11,0.61,4.11,0.9,5.99c0.18,1.89,0.36,3.67,0.52,5.32
			c0.15,1.65,0.301,3.17,0.431,4.57c0.12,1.4,0.14,2.68,0.2,3.82c0.02,0.46,0.04,0.9,0.06,1.32c0.06,1.45,0.12,2.64,0.17,3.54
			C512.22,408.355,512.25,409.036,512.26,409.296"/>
		<path fill="#B81817" d="M151.17,451.806c-0.04,0.09-0.07,0.18-0.1,0.27v-0.119C151.1,451.906,151.14,451.855,151.17,451.806"/>
		<path fill="#B81817" d="M179.97,472.546c-0.13,0.33-0.27,0.67-0.42,1.02c-0.09,0.02-0.18,0.049-0.27,0.07
			C179.53,473.265,179.76,472.906,179.97,472.546"/>
		<path fill="#B81817" d="M225.72,462.925c-0.01-0.01-0.03-0.01-0.04,0c-0.06-0.189-0.12-0.379-0.16-0.58
			C225.58,462.546,225.64,462.736,225.72,462.925"/>
		<path fill="#B81817" d="M280.75,461.287c-0.09,0-0.18,0.01-0.26,0.01c0.029-0.021,0.049-0.041,0.08-0.061
			C280.63,461.246,280.689,461.265,280.75,461.287"/>
		<path fill="#B81817" d="M468.899,467.115c0.16,0.07,0.311,0.141,0.46,0.201c-0.279-0.131-0.58-0.26-0.899-0.391
			C468.609,466.986,468.75,467.046,468.899,467.115"/>
		<path fill="#B81817" d="M481.92,465.287c-0.13-0.041-0.261-0.08-0.4-0.131s-0.28-0.1-0.439-0.16c0.159,0.051,0.31,0.1,0.439,0.15
			C481.659,465.195,481.79,465.246,481.92,465.287"/>
		<path fill="#B81817" d="M491.77,470.355c0.16,0.15,0.32,0.311,0.48,0.471v0.01C492.09,470.666,491.939,470.505,491.77,470.355"/>
		<path fill="#B81817" d="M132.33,439.835c-0.07-0.061-0.15-0.119-0.23-0.18c0.04,0.02,0.08,0.051,0.12,0.08
			S132.29,439.796,132.33,439.835"/>
		<path fill="#B81817" d="M121.86,431.037c-0.27,0.109-0.54,0.229-0.8,0.34c0.11-0.08,0.22-0.182,0.32-0.291
			c0.02-0.02,0.03-0.029,0.04-0.049H121.86z"/>
		<path fill="#B81817" d="M137.89,447.435c-0.1,0.061-0.2,0.121-0.3,0.18l-0.01-0.09C137.68,447.496,137.79,447.466,137.89,447.435"
			/>
		<path fill="#B81817" d="M123.2,427.957c-0.02,0.068-0.04,0.139-0.07,0.209c-0.1,0.041-0.19,0.08-0.29,0.121
			c0.11-0.08,0.22-0.182,0.32-0.291C123.17,427.986,123.19,427.966,123.2,427.957"/>
		<path fill="#B81817" d="M493.5,472.855c-0.11-0.289-0.25-0.58-0.41-0.859C493.26,472.265,493.39,472.556,493.5,472.855"/>
		<path fill="#0C3048" d="M466.21,552.1c0,0,0,0-0.01,0c-0.37,0.4-1.28,1.36-2.7,2.83c-1.9,1.97-4.58,4.97-8.3,8.42
			c-0.21,0.19-0.41,0.39-0.62,0.58c-0.88,0.84-1.771,1.729-2.73,2.64c-0.859,0.83-1.779,1.681-2.76,2.521
			c-2.3,2-4.79,4.16-7.45,6.47c-2.77,2.17-5.72,4.46-8.83,6.9c-3.25,2.22-6.56,4.72-10.149,7.109c-1.83,1.15-3.69,2.33-5.59,3.521
			c-0.95,0.59-1.9,1.2-2.87,1.81c-0.99,0.561-2,1.11-3.01,1.69c-2.021,1.14-4.08,2.3-6.16,3.47c-2.101,1.17-4.311,2.18-6.511,3.29
			c-4.35,2.3-9.06,4.16-13.789,6.23c-2.381,1.02-4.87,1.81-7.32,2.77c-2.46,0.92-4.94,1.89-7.521,2.63
			c-2.55,0.79-5.13,1.59-7.729,2.4c-2.63,0.67-5.29,1.34-7.96,2.01c-1.34,0.32-2.67,0.7-4.021,0.97
			c-1.359,0.25-2.729,0.521-4.09,0.78c-2.74,0.49-5.46,1.17-8.24,1.54c-11.09,1.83-22.489,2.59-33.89,2.71l-8.6-0.21
			c-1.44-0.07-2.93-0.03-4.33-0.17l-4.21-0.34c-2.8-0.271-5.59-0.36-8.39-0.78c-2.8-0.4-5.59-0.79-8.37-1.18
			c-2.78-0.37-5.5-1.051-8.24-1.551c-1.36-0.26-2.73-0.52-4.09-0.77c-1.36-0.28-2.68-0.65-4.02-0.97c-2.68-0.67-5.33-1.34-7.97-2
			c-2.59-0.82-5.17-1.61-7.73-2.41c-2.58-0.74-5.05-1.68-7.52-2.61c-2.45-0.97-4.93-1.77-7.31-2.77c-4.73-2.061-9.45-3.92-13.8-6.21
			c-2.2-1.12-4.41-2.13-6.51-3.29c-2.09-1.17-4.14-2.33-6.16-3.471c-1.02-0.56-2.02-1.14-3.02-1.68c-0.29-0.18-0.58-0.38-0.87-0.55
			l2.47-11.33l2.91-13.33l-21.1-17.8l12.1-12.42c0,0-0.59-4.15-1.15-8.23c-1.35,0.23-2.68,0.45-3.99,0.69h-0.01
			c-2.17,0.399-4.27,0.81-6.3,1.229c-11.55,2.4-20.87,5.24-27.17,8.521l-0.22-1.58l-0.28-2.03h-0.01
			c-0.02,0.021-0.03,0.03-0.05,0.03c-0.32,0.25-0.64,0.5-0.94,0.75c-0.05,0.03-0.1,0.07-0.14,0.11c-0.19,0.14-0.37,0.3-0.55,0.46
			c-0.09,0.069-0.18,0.149-0.26,0.22v0.01c-0.02,0.01-0.04,0.03-0.06,0.04c-0.14,0.13-0.28,0.24-0.42,0.38
			c-0.16,0.141-0.32,0.28-0.47,0.431c-0.26,0.25-0.51,0.5-0.76,0.75c-0.2,0.21-0.39,0.409-0.57,0.609c-0.07,0.07-0.14,0.15-0.2,0.23
			c-0.09,0.1-0.18,0.189-0.27,0.31c-0.13,0.15-0.25,0.29-0.37,0.45c-0.02,0.01-0.04,0.04-0.05,0.06c-0.07,0.091-0.14,0.17-0.2,0.261
			c-0.1,0.109-0.2,0.25-0.29,0.38c-0.04,0.05-0.08,0.109-0.12,0.17c-0.11,0.14-0.22,0.3-0.32,0.47c-0.15,0.21-0.29,0.41-0.41,0.63
			c-0.11,0.181-0.21,0.36-0.31,0.53c-0.07,0.12-0.13,0.24-0.19,0.36c-0.07,0.13-0.14,0.26-0.2,0.39c-0.02,0.04-0.04,0.07-0.05,0.09
			c-0.05,0.12-0.1,0.23-0.15,0.33c-0.1,0.22-0.18,0.42-0.27,0.64c-0.01,0.03-0.02,0.061-0.04,0.091c-0.01,0.029-0.02,0.069-0.04,0.1
			c-0.13,0.38-0.25,0.74-0.35,1.11c-0.05,0.17-0.1,0.34-0.13,0.51c-0.09,0.359-0.16,0.72-0.22,1.09c-0.04,0.29-0.07,0.58-0.09,0.87
			c-0.02,0.14-0.02,0.26-0.02,0.399c0,0.021-0.01,0.021,0,0.051c-0.01,0.05-0.01,0.1-0.01,0.149c-0.01,0.021-0.01,0.021,0,0.03
			c-0.01,0.01-0.01,0.01,0,0.02v0.021c-0.01,0.09-0.01,0.2-0.01,0.29c0,0,0.01,0.02,0.04,0.04c0.01,0.01,0.01,0.01,0.01,0.03
			c0.19,0.29,0.99,1.46,2.41,3.319c1.46,1.83,3.35,4.57,6.04,7.7c0.44,0.51,0.9,1.03,1.38,1.55c1.71,1.9,3.48,4.141,5.63,6.351
			c2.17,2.21,4.51,4.59,7.02,7.14c2.65,2.41,5.46,4.97,8.43,7.67c3.13,2.521,6.39,5.22,9.91,7.89c7.13,5.19,15.03,10.69,24.03,15.41
			c4.39,2.561,9.16,4.69,13.97,7.021c2.41,1.16,4.95,2.09,7.47,3.13c2.52,1.03,5.07,2.08,7.72,2.92c2.63,0.88,5.28,1.79,7.95,2.69
			c2.72,0.76,5.46,1.52,8.21,2.3c1.39,0.359,2.76,0.8,4.16,1.109c1.41,0.311,2.82,0.61,4.23,0.92c2.84,0.551,5.67,1.271,8.56,1.69
			s5.79,0.86,8.7,1.29c2.9,0.46,5.9,0.6,8.86,0.91l4.47,0.39c1.49,0.15,2.91,0.13,4.37,0.2l8.85,0.28
			c11.87-0.23,23.73-1.12,35.25-3.101c2.88-0.439,5.71-1.14,8.55-1.72c1.41-0.29,2.82-0.6,4.23-0.92c1.399-0.32,2.77-0.75,4.16-1.11
			c2.75-0.77,5.489-1.529,8.199-2.3c2.681-0.91,5.33-1.8,7.96-2.689c2.65-0.841,5.19-1.9,7.721-2.931c2.52-1.05,5.05-1.97,7.46-3.14
			c4.8-2.33,9.569-4.46,13.96-7.021c9-4.729,16.89-10.239,24.02-15.43c3.511-2.68,6.78-5.38,9.9-7.89
			c2.97-2.71,5.78-5.271,8.43-7.681c2.5-2.56,4.84-4.939,7.01-7.149c2.15-2.21,3.931-4.45,5.641-6.351c0.09-0.1,0.17-0.189,0.26-0.3
			c3.3-3.67,5.48-6.859,7.14-8.95c0.271-0.35,0.511-0.67,0.73-0.97c0.87-1.12,1.43-1.86,1.67-2.18c0.01-0.01,0.02-0.021,0.02-0.021
			c0.011-0.029,0.03-0.04,0.03-0.06C466.28,552.03,466.24,552.06,466.21,552.1z M150.73,562.6c-2.31-2.5-4.56-5.05-6.75-7.67
			c-0.35-0.42-0.69-0.83-1.03-1.25c-0.28-0.34-0.57-0.69-0.84-1.04c0.47,0.52,1.22,1.35,2.25,2.43c1.65,1.69,3.87,4.15,6.86,7.021
			C151.07,562.26,150.9,562.43,150.73,562.6z"/>
		<path fill="#0C3048" d="M151.22,562.09c-0.15,0.17-0.32,0.34-0.49,0.51c-2.31-2.5-4.56-5.05-6.75-7.67
			c-0.35-0.42-0.69-0.83-1.03-1.25c-0.28-0.34-0.57-0.69-0.84-1.04c0.47,0.52,1.22,1.35,2.25,2.43
			C146.01,556.76,148.23,559.22,151.22,562.09z"/>
		<path fill="#FFFFFF" d="M127.754,490.851c-3.78-14.721-7.559-29.439-11.339-44.162c5.26-1.35,7.894-2.002,13.171-3.258
			c3.52,14.785,7.04,29.57,10.56,44.355C135.182,488.968,132.704,489.582,127.754,490.851"/>
		<path fill="#FFFFFF" d="M202.195,475.843c-4.653,0.688-6.978,1.049-11.623,1.813c-2.349-7.605-3.538-11.404-5.944-18.996
			c-0.422-1.34-0.855-2.836-1.3-4.488c-0.444-1.65-0.899-3.459-1.365-5.422c0.02,1.955-0.17,4.43-0.557,7.424
			c-0.091,0.627-0.154,1.092-0.19,1.393c-1.096,8.859-1.606,13.291-2.554,22.148c-3.305,0.6-4.956,0.908-8.256,1.547
			c-4.091-7.912-6.172-11.857-10.406-19.721c-0.143-0.266-0.359-0.678-0.648-1.232c-1.469-2.648-2.541-4.875-3.204-6.689
			c0.217,1.715,0.411,3.418,0.582,5.111c0.171,1.691,0.31,3.385,0.417,5.08c0.504,7.949,0.771,11.922,1.334,19.861
			c-4.591,0.969-6.883,1.471-11.461,2.514c-1.013-15.365-1.916-30.73-2.711-46.107c5.189-1.127,7.788-1.67,12.991-2.707
			c4.752,8.643,7.084,12.98,11.662,21.684c0.074,0.156,0.21,0.404,0.406,0.748c1.05,1.938,1.794,3.623,2.239,5.063
			c-0.065-0.813-0.071-1.725-0.018-2.738c0.052-1.012,0.152-2.24,0.304-3.684c1.145-9.752,1.762-14.629,3.09-24.387
			c5.234-0.918,7.854-1.354,13.099-2.182C192.892,446.5,197.594,461.152,202.195,475.843"/>
		<path fill="#FFFFFF" d="M261.489,469.568c-4.684,0.301-7.025,0.471-11.705,0.848c-1.714-7.771-2.585-11.656-4.357-19.42
			c-0.31-1.371-0.618-2.896-0.925-4.58c-0.306-1.682-0.611-3.52-0.913-5.516c-0.14,1.949-0.532,4.4-1.161,7.354
			c-0.142,0.617-0.242,1.074-0.303,1.371c-1.814,8.74-2.683,13.113-4.348,21.861c-3.334,0.324-5,0.496-8.331,0.861
			c-3.419-8.225-5.165-12.326-8.729-20.512c-0.12-0.277-0.301-0.707-0.543-1.285c-1.243-2.758-2.126-5.066-2.637-6.93
			c0.076,1.729,0.13,3.441,0.161,5.143c0.032,1.699,0.031,3.398,0,5.098c-0.148,7.963-0.208,11.943-0.297,19.902
			c-4.638,0.584-6.956,0.895-11.586,1.555c0.247-15.395,0.603-30.779,1.068-46.17c5.246-0.695,7.871-1.02,13.126-1.623
			c4.015,9.004,5.978,13.52,9.816,22.574c0.061,0.16,0.175,0.42,0.342,0.777c0.885,2.016,1.487,3.76,1.811,5.229
			c0.002-0.814,0.071-1.725,0.206-2.73c0.135-1.002,0.335-2.219,0.604-3.645c1.934-9.625,2.946-14.436,5.063-24.049
			c5.278-0.482,7.918-0.701,13.201-1.094C254.638,439.558,258.115,454.546,261.489,469.568"/>
		<path fill="#FFFFFF" d="M268.556,469.146c-0.829-15.176-1.658-30.35-2.487-45.525c5.382-0.293,8.073-0.418,13.458-0.617
			c0.563,15.188,1.127,30.375,1.691,45.563C276.151,468.753,273.619,468.871,268.556,469.146"/>
		<path fill="#FFFFFF" d="M344.122,468.962c-4.687-0.234-7.03-0.332-11.721-0.488c-0.816-7.918-1.241-11.875-2.117-19.791
			c-0.151-1.396-0.283-2.947-0.396-4.654c-0.113-1.705-0.207-3.566-0.28-5.584c-0.361,1.92-1.028,4.313-1.989,7.172
			c-0.21,0.598-0.361,1.041-0.456,1.328c-2.794,8.479-4.153,12.725-6.801,21.227c-3.345-0.057-5.018-0.076-8.364-0.094
			c-2.457-8.559-3.723-12.834-6.327-21.371c-0.088-0.289-0.219-0.736-0.394-1.338c-0.919-2.883-1.532-5.275-1.828-7.186
			c-0.12,1.725-0.262,3.434-0.424,5.127s-0.354,3.381-0.579,5.064c-1.051,7.895-1.562,11.842-2.555,19.738
			c-4.666,0.055-6.998,0.1-11.663,0.227c1.992-15.266,4.092-30.512,6.301-45.746c5.28-0.094,7.92-0.117,13.201-0.121
			c2.959,9.404,4.394,14.113,7.172,23.545c0.043,0.166,0.127,0.438,0.252,0.813c0.649,2.104,1.048,3.902,1.202,5.4
			c0.095-0.809,0.267-1.705,0.515-2.688s0.584-2.168,1.014-3.555c3.013-9.342,4.564-14.006,7.759-23.316
			c5.293,0.121,7.938,0.205,13.229,0.416C340.73,438.367,342.479,453.656,344.122,468.962"/>
		<path fill="#FFFFFF" d="M350.876,469.33c0.896-15.172,1.792-30.344,2.688-45.516c9.977,0.568,19.969,1.354,29.909,2.352
			c-0.391,3.979-0.586,5.969-0.977,9.949c-6.679-0.656-10.022-0.947-16.71-1.455c-0.24,3.154-0.36,4.732-0.601,7.887
			c6.241,0.475,9.36,0.744,15.594,1.348c-0.378,3.895-0.566,5.84-0.944,9.734c-6.152-0.596-9.23-0.863-15.39-1.33
			c-0.234,3.068-0.351,4.602-0.583,7.67c6.465,0.49,9.695,0.773,16.151,1.406c-0.398,4.066-0.599,6.1-0.998,10.166
			C369.662,470.603,360.261,469.863,350.876,469.33"/>
		<path fill="#FFFFFF" d="M387.283,472.402c1.659-15.107,3.318-30.217,4.978-45.322c9.946,1.072,19.899,2.361,29.791,3.861
			c-0.592,3.953-0.888,5.932-1.479,9.887c-6.648-0.994-9.976-1.453-16.639-2.299c-0.398,3.139-0.599,4.707-0.996,7.846
			c6.217,0.789,9.323,1.217,15.526,2.137c-0.573,3.869-0.859,5.805-1.434,9.672c-6.123-0.906-9.188-1.328-15.325-2.107
			c-0.387,3.053-0.581,4.58-0.968,7.633c6.44,0.816,9.657,1.262,16.083,2.221c-0.604,4.041-0.906,6.063-1.509,10.104
			C406.005,474.623,396.642,473.41,387.283,472.402"/>
		<path fill="#FFFFFF" d="M430.105,478.4c1.952-11.441,3.905-22.881,5.857-34.322c-4.277-0.729-6.418-1.08-10.702-1.748
			c0.664-4.258,0.996-6.387,1.661-10.646c11.658,1.818,23.274,3.906,34.838,6.258c-0.86,4.223-1.289,6.336-2.148,10.559
			c-4.258-0.865-6.39-1.283-10.656-2.088c-2.15,11.404-4.302,22.811-6.452,34.215C437.55,479.693,435.07,479.248,430.105,478.4"/>
		<path fill="#FFFFFF" d="M463.815,469.902c1.43,2.453,2.929,4.387,4.507,5.803c1.579,1.418,3.256,2.33,5.045,2.744
			c1.664,0.385,3.133,0.271,4.41-0.344c1.278-0.613,2.078-1.584,2.398-2.918c0.353-1.473,0.159-2.721-0.586-3.742
			c-0.745-1.02-2.673-2.346-5.789-3.953c-4.27-2.205-7.162-4.438-8.652-6.732c-1.491-2.293-1.901-5.082-1.209-8.375
			c0.898-4.268,3.147-7.432,6.794-9.455c3.647-2.025,7.95-2.482,12.85-1.338c2.646,0.617,5.076,1.547,7.282,2.777
			c2.205,1.234,4.195,2.783,5.961,4.645c-2.504,3.053-3.748,4.586-6.217,7.658c-1.169-1.531-2.455-2.781-3.852-3.748
			c-1.397-0.967-2.854-1.629-4.366-1.984c-1.555-0.365-2.901-0.309-4.033,0.168c-1.131,0.475-1.82,1.26-2.068,2.355
			c-0.254,1.111-0.03,2.1,0.662,2.961c0.694,0.861,2.181,1.873,4.449,3.049c0.217,0.117,0.325,0.174,0.541,0.289
			c4.894,2.566,7.934,4.887,9.163,6.887c0.827,1.365,1.329,2.881,1.509,4.545c0.181,1.664,0.029,3.42-0.445,5.271
			c-1.203,4.686-3.761,8.037-7.62,10.1c-3.861,2.066-8.375,2.473-13.608,1.264c-3.141-0.725-5.881-1.891-8.238-3.508
			c-2.355-1.619-4.499-3.803-6.442-6.559C459.256,474.603,460.767,473.031,463.815,469.902"/>
	</g>
</g>
</svg>
